<svg xmlns="http://www.w3.org/2000/svg" viewBox="0 0 1780 1770"><path d="M376 1695c54-147 56-158 52-265-4-82-10-119-30-167-37-90-97-185-182-288C54 781-25 545 19 384 46 283 203 110 319 52c67-33 85-37 168-40 111-5 193 16 292 75 76 45 201 164 220 211 18 42 37 41 52-5l12-38 21 45c18 38 21 64 21 175-1 111-4 138-24 187-12 32-27 60-33 64-5 3-26-9-46-28-89-84-181-119-314-122l-87-1 43-22c55-28 103-83 111-127 10-52-10-99-64-149-38-35-59-47-95-52-98-15-198 16-251 77-45 53-65 116-65 203 0 114 42 213 135 317 127 142 185 375 140 568-21 89-86 215-141 275-25 28-42 41-38 30z" fill="#F51858" style="transform:none"/><path d="M560 1717c471-192 772-468 855-782 22-83 30-220 16-272-16-59-63-97-112-90-39 5-99 42-158 97-21 19-31 24-26 13 44-100 57-161 53-249-3-77-9-101-34-153-17-34-27-64-22-67 16-10 197-6 255 6 181 37 342 178 389 340 6 24 6 24-12 9-11-9-34-20-51-24l-33-7 16 44c22 59 30 225 14 296-15 68-66 182-111 249-47 69-171 195-265 269-243 191-645 365-837 364-40-1-36-3 63-43z" fill="#FB868E" style="transform:none"/></svg>